#!OML:ASF E:\emotionWalksFemale\Project 1\Capture day 1\Session 1\Female1.ASF
:FULLY-SPECIFIED
:DEGREES
425
root 9.35826 15.6797 -7.0084 -177.541 0.58518 -178.994
lowerback 14.9341 2.00064 1.95304
upperback -2.86453 2.99044 -0.566426
thorax -11.4223 1.25873 -2.4551
lowerneck -10.7718 -3.15513 -5.24151
upperneck 2.09439 -3.82394 4.28329
head 2.79312 -1.84373 2.11352
rclavicle 2.31708e-015 -3.37934e-015
rhumerus -12.6163 -10.2035 -9.558
rradius 41.1284
rwrist 9.64459
rhand -15.7634 -66.6767
rfingers 7.12502
rthumb 10.4284 96.3981
lclavicle 2.31708e-015 -3.37934e-015
lhumerus -19.0051 27.0831 6.02792
lradius 36.3262
lwrist -16.0255
lhand -11.335 -36.8464
lfingers 7.12502
lthumb 14.6978 -7.38739
rfemur -12.8284 10.497 23.9319
rtibia 24.7773
rfoot -19.9588 -23.464
rtoes -16.5423
lfemur -16.0613 -9.26554 -21.0147
ltibia 30.5535
lfoot -24.5979 16.8171
ltoes -34.4176
426
root 9.37364 15.6451 -7.08016 -178.075 0.628804 -178.991
lowerback 14.4941 1.98316 1.90525
upperback -2.86649 2.94279 -0.628209
thorax -11.1666 1.24385 -2.46249
lowerneck -11.2762 -3.20524 -4.92466
upperneck 3.09637 -3.89261 3.99649
head 3.219 -1.8713 1.95413
rclavicle -2.96376e-014 -3.37934e-015
rhumerus -14.9495 -11.1929 -9.95674
rradius 40.4845
rwrist 12.076
rhand -14.1447 -62.963
rfingers 7.12502
rthumb 11.9896 92.5996
lclavicle -2.96376e-014 -3.37934e-015
lhumerus -21.6837 27.1359 5.73877
lradius 36.7737
lwrist -15.1521
lhand -10.6042 -36.6006
lfingers 7.12502
lthumb 15.4017 -7.19434
rfemur -11.3069 11.4146 23.9765
rtibia 23.1078
rfoot -18.6857 -24.0717
rtoes -18.9239
lfemur -14.7475 -11.1501 -21.1117
ltibia 29.6131
lfoot -23.8147 17.9052
ltoes -33.8555
427
root 9.39037 15.6145 -7.15032 -178.734 0.616111 -179.034
lowerback 14.0967 1.92951 1.73366
upperback -2.88889 2.83187 -0.635581
thorax -10.971 1.20733 -2.32957
lowerneck -10.9338 -3.13032 -5.07859
upperneck 3.4102 -3.7997 4.27285
head 3.27186 -1.8151 2.08627
rclavicle 2.19719e-014 1.78906e-015
rhumerus -17.06 -11.3905 -10.4838
rradius 39.6062
rwrist 12.4289
rhand -15.4977 -58.8629
rfingers 7.12502
rthumb 10.6847 271.429
lclavicle 2.19719e-014 1.78906e-015
lhumerus -24.408 27.0798 5.40352
lradius 37.173
lwrist -14.678
lhand -10.0514 -36.3562
lfingers 7.12502
lthumb 15.9341 -6.9917
rfemur -9.60104 11.7141 24.1547
rtibia 21.8633
rfoot -18.3399 -24.0841
rtoes -19.4207
lfemur -13.2264 -12.8718 -21.3849
ltibia 28.8906
lfoot -22.8533 19.031
ltoes -33.9117
428
root 9.40795 15.5884 -7.21046 -179.408 0.612548 -179.087
lowerback 13.8632 1.85909 1.50627
upperback -3.03519 2.69673 -0.619776
thorax -11.0149 1.15743 -2.14729
lowerneck -10.0639 -2.98751 -5.14009
upperneck 3.57132 -3.63805 4.38307
head 3.15766 -1.73466 2.15153
rclavicle -2.43667e-015 1.19271e-014
rhumerus -19.3075 -11.0836 -10.9057
rradius 38.9652
rwrist 12.4768
rhand -16.9697 -55.4276
rfingers 7.12502
rthumb 9.2646 274.796
lclavicle -2.43667e-015 1.19271e-014
lhumerus -27.1182 26.6427 5.04323
lradius 37.4262
lwrist -14.5102
lhand -9.65597 -35.9141
lfingers 7.12502
lthumb 16.3149 -6.58038
rfemur -7.99898 11.3992 24.4268
rtibia 21.0462
rfoot -16.8382 -24.4535
rtoes -19.3892
lfemur -11.715 -14.0257 -21.7663
ltibia 28.395
lfoot -22.7946 19.7689
ltoes -32.1154
429
root 9.42428 15.568 -7.26212 -180.061 0.575423 -179.138
lowerback 13.7951 1.78288 1.35216
upperback -2.92855 2.5622 -0.648529
thorax -10.8664 1.10615 -2.05481
lowerneck -10.1732 -2.92776 -4.94883
upperneck 3.7315 -3.57688 4.32074
head 3.22312 -1.70209 2.09921
rclavicle -2.14212e-014 7.35503e-015
rhumerus -21.6563 -11.1309 -11.3108
rradius 38.5903
rwrist 12.2361
rhand -18.9829 -53.1118
rfingers 7.12502
rthumb 7.32161 277.035
lclavicle -2.14212e-014 7.35503e-015
lhumerus -29.8051 26.8087 4.66485
lradius 37.634
lwrist -14.6367
lhand -9.15807 -36.0186
lfingers 7.12502
lthumb 16.7943 -6.72492
rfemur -6.7058 10.855 24.6649
rtibia 20.5465
rfoot -16.9037 -24.0672
rtoes -19.6061
lfemur -10.4224 -14.6709 -22.1511
ltibia 28.0786
lfoot -23.2626 20.1576
ltoes -29.1696
430
root 9.43957 15.5552 -7.3125 -180.773 0.451198 -179.128
lowerback 13.875 1.68209 1.39004
upperback -2.80572 2.42659 -0.725636
thorax -10.7767 1.03873 -2.12903
lowerneck -9.4498 -2.72455 -5.0103
upperneck 2.97945 -3.34948 4.76557
head 2.82993 -1.58622 2.27435
rclavicle -1.31819e-014 -1.19271e-014
rhumerus -24.1651 -10.4387 -12.1821
rradius 39.8672
rwrist 13.2452
rhand -15.8963 -57.8042
rfingers 7.12502
rthumb 10.3002 272.468
lclavicle -1.31819e-014 -1.19271e-014
lhumerus -32.6052 26.503 4.31719
lradius 38.113
lwrist -14.5816
lhand -8.78461 -37.326
lfingers 7.12502
lthumb 17.1538 -8.06325
rfemur -5.50504 10.4923 24.9432
rtibia 20.1259
rfoot -17.1777 -23.5527
rtoes -19.1714
lfemur -9.22384 -15.23 -22.4461
ltibia 27.8534
lfoot -23.2079 20.5111
ltoes -26.7907
431
root 9.45741 15.5486 -7.35776 -181.616 0.297181 -179.13
lowerback 14.1997 1.57584 1.38205
upperback -2.69946 2.28167 -0.779196
thorax -10.853 0.967404 -2.16002
lowerneck -9.34188 -2.77916 -4.77611
upperneck 2.91705 -3.44366 4.60026
head 2.78159 -1.63679 2.16977
rclavicle 3.49116e-015 -4.37326e-015
rhumerus -26.7206 -11.145 -12.4695
rradius 39.8181
rwrist 15.0818
rhand -15.3128 -56.704
rfingers 7.12502
rthumb 10.863 273.597
lclavicle 3.49116e-015 -4.37326e-015
lhumerus -35.2288 25.9565 4.46234
lradius 38.9275
lwrist -14.7092
lhand -8.73356 -36.3794
lfingers 7.12502
lthumb 17.2029 -7.12087
rfemur -4.15153 10.5717 25.2546
rtibia 19.6196
rfoot -17.0351 -23.825
rtoes -17.5765
lfemur -7.9552 -15.9044 -22.7649
ltibia 27.6006
lfoot -22.7179 21.0752
ltoes -25.1917
432
root 9.47764 15.5459 -7.39732 -182.695 0.138372 -179.088
lowerback 14.9686 1.47961 1.37599
upperback -2.54145 2.16028 -0.801732
thorax -11.1321 0.905095 -2.17875
lowerneck -8.52685 -2.67831 -4.79476
upperneck 2.08695 -3.34851 4.9545
head 2.35517 -1.59413 2.29718
rclavicle 3.93904e-014 -8.74653e-015
rhumerus -29.4115 -11.0254 -12.9951
rradius 40.0198
rwrist 15.2892
rhand -15.9656 -56.0941
rfingers 7.12502
rthumb 10.2333 274.175
lclavicle 3.93904e-014 -8.74653e-015
lhumerus -37.758 26.1185 4.54839
lradius 39.2504
lwrist -15.3143
lhand -8.7436 -36.7639
lfingers 7.12502
lthumb 17.1932 -7.50457
rfemur -2.51256 10.8323 25.6948
rtibia 19.1182
rfoot -17.3084 -24.4604
rtoes -14.7564
lfemur -6.43619 -16.5042 -23.0933
ltibia 27.2371
lfoot -22.3164 21.5957
ltoes -24.9748
433
root 9.4985 15.539 -7.43986 -184.041 0.0302285 -179.073
lowerback 15.9972 1.44592 1.33961
upperback -2.37726 2.09446 -0.82784
thorax -11.5537 0.858506 -2.2037
lowerneck -7.89131 -2.69201 -4.56113
upperneck 1.82358 -3.40027 4.83509
head 2.14326 -1.62802 2.21363
rclavicle -4.67144e-015 1.47101e-014
rhumerus -32.3918 -10.3206 -13.6053
rradius 40.5324
rwrist 15.0429
rhand -16.4189 -56.4731
rfingers 7.12502
rthumb 9.79605 273.775
lclavicle -4.67144e-015 1.47101e-014
lhumerus -40.3409 25.3708 4.97389
lradius 39.8412
lwrist -14.7908
lhand -8.98661 -36.9835
lfingers 7.12502
lthumb 16.9593 -7.70386
rfemur -0.569232 11.0057 26.1772
rtibia 18.7057
rfoot -17.97 -24.851
rtoes -12.4081
lfemur -4.53778 -16.9188 -23.5339
ltibia 26.8259
lfoot -22.3306 21.7729
ltoes -24.8492
434
root 9.52025 15.5272 -7.47701 -185.13 0.0170151 -179.303
lowerback 16.859 1.46496 0.988624
upperback -2.22268 2.03318 -0.915225
thorax -11.8953 0.838503 -2.11223
lowerneck -7.74027 -2.68601 -4.4545
upperneck 1.70312 -3.41065 4.90041
head 2.0753 -1.63391 2.2158
rclavicle 9.98893e-015 -3.18055e-015
rhumerus -35.3627 -9.82918 -14.2744
rradius 41.0041
rwrist 15.0907
rhand -16.53 -56.762
rfingers 7.12502
rthumb 9.68888 273.481
lclavicle 9.98893e-015 -3.18055e-015
lhumerus -42.9622 24.3833 5.64005
lradius 40.5289
lwrist -13.5195
lhand -9.43769 -36.9874
lfingers 7.12502
lthumb 16.5251 -7.6711
rfemur 1.00896 11.1497 26.334
rtibia 18.3628
rfoot -18.2076 -25.0691
rtoes -11.2608
lfemur -2.96087 -17.136 -24.1321
ltibia 26.4852
lfoot -22.3766 21.8354
ltoes -24.5808
435
root 9.54609 15.5243 -7.50771 -185.431 0.169646 -179.471
lowerback 16.8955 1.54373 0.65897
upperback -2.18146 2.11276 -0.989013
thorax -11.8761 0.916503 -2.03232
lowerneck -8.42838 -2.74831 -4.05079
upperneck 2.18869 -3.49774 4.42619
head 2.3424 -1.67544 1.97761
rclavicle -3.74212e-014 4.77083e-015
rhumerus -38.1811 -9.67879 -14.9809
rradius 41.1654
rwrist 15.1062
rhand -16.8539 -56.8679
rfingers 7.12502
rthumb 9.37632 273.361
lclavicle -3.74212e-014 4.77083e-015
lhumerus -45.3704 24.0342 6.42368
lradius 40.9371
lwrist -12.6349
lhand -9.71433 -37.0093
lfingers 7.12502
lthumb 16.2587 -7.67103
rfemur 1.58993 11.4855 26.3981
rtibia 18.1134
rfoot -18.163 -25.2834
rtoes -10.723
lfemur -2.41367 -17.1253 -24.328
ltibia 26.2814
lfoot -22.2835 21.7905
ltoes -24.3049
436
root 9.57392 15.5278 -7.5461 -185.25 0.357334 -179.394
lowerback 16.2847 1.65265 0.523695
upperback -2.286 2.22696 -0.96316
thorax -11.6389 0.982425 -1.9354
lowerneck -8.34964 -2.69223 -4.28179
upperneck 2.0475 -3.42201 4.81243
head 2.29488 -1.63277 2.15218
rclavicle 2.68608e-014 8.34896e-015
rhumerus -40.6984 -9.80623 -15.6718
rradius 40.992
rwrist 15.377
rhand -16.9624 -57.1983
rfingers 7.12502
rthumb 9.27161 273.026
lclavicle 2.68608e-014 8.34896e-015
lhumerus -47.7712 23.8156 7.18262
lradius 41.2172
lwrist -12.331
lhand -9.5282 -37.0623
lfingers 7.12502
lthumb 16.4379 -7.73878
rfemur 1.64899 11.9749 26.6446
rtibia 17.9387
rfoot -18.2813 -25.5132
rtoes -9.92255
lfemur -2.44315 -16.9993 -24.0825
ltibia 26.2541
lfoot -22.4462 21.571
ltoes -23.2509
437
root 9.59707 15.5268 -7.59089 -185.163 0.368342 -179.225
lowerback 15.6443 1.69293 0.556354
upperback -2.38757 2.28772 -0.904846
thorax -11.3774 1.01374 -1.88193
lowerneck -8.67641 -2.77003 -4.13994
upperneck 2.615 -3.51909 4.5041
head 2.53742 -1.6786 2.01876
rclavicle 2.59662e-014 -8.34896e-015
rhumerus -43.22 -9.95685 -16.2991
rradius 40.7334
rwrist 15.7549
rhand -16.8809 -57.3661
rfingers 7.12502
rthumb 9.3503 272.861
lclavicle 2.59662e-014 -8.34896e-015
lhumerus -50.0438 23.2458 8.1875
lradius 41.4072
lwrist -11.8699
lhand -9.35952 -37.2141
lfingers 7.12502
lthumb 16.6003 -7.90411
rfemur 1.90813 12.446 27.0179
rtibia 17.739
rfoot -18.5369 -25.8521
rtoes -9.0181
lfemur -2.35619 -16.958 -23.828
ltibia 26.355
lfoot -22.8993 21.6619
ltoes -23.819
438
root 9.61649 15.5232 -7.63229 -185.195 0.331992 -179.076
lowerback 15.1569 1.69955 0.702829
upperback -2.49946 2.32104 -0.900427
thorax -11.2106 1.0216 -1.95122
lowerneck -8.18963 -2.72016 -4.42187
upperneck 2.48815 -3.45043 4.80523
head 2.41793 -1.64387 2.17682
rclavicle 2.44257e-014 -1.43125e-014
rhumerus -45.8846 -10.0691 -16.9705
rradius 40.4467
rwrist 15.926
rhand -17.0037 -57.5478
rfingers 7.12502
rthumb 9.23177 272.674
lclavicle 2.44257e-014 -1.43125e-014
lhumerus -52.26 22.7113 9.25688
lradius 41.4765
lwrist -11.4049
lhand -9.39909 -36.9527
lfingers 7.12502
lthumb 16.5622 -7.63953
rfemur 2.31948 13.0353 27.4241
rtibia 17.5193
rfoot -18.7692 -26.3537
rtoes -8.58096
lfemur -2.15206 -17.0422 -23.6589
ltibia 26.4553
lfoot -23.4296 22.1116
ltoes -26.1781
